<!DOCTYPE svg PUBLIC "-//W3C//DTD SVG 1.1//EN" "http://www.w3.org/Graphics/SVG/1.1/DTD/svg11.dtd">
<!-- Uploaded to: SVG Repo, www.svgrepo.com, Transformed by: SVG Repo Mixer Tools -->
<svg fill="#00a0ff" height="87px" width="87px" version="1.1" id="Layer_1" xmlns="http://www.w3.org/2000/svg" xmlns:xlink="http://www.w3.org/1999/xlink" viewBox="0 0 512 512" xml:space="preserve" stroke="#00a0ff">
<g id="SVGRepo_bgCarrier" stroke-width="0"/>
<g id="SVGRepo_tracerCarrier" stroke-linecap="round" stroke-linejoin="round"/>
<g id="SVGRepo_iconCarrier"> <g> <g> <g> <polygon points="213.342,341.338 327.113,256.004 213.342,170.671 "/> <path d="M256,0C114.837,0,0,114.837,0,256s114.837,256,256,256c141.184,0,256-114.837,256-256S397.184,0,256,0z M375.467,273.067 l-170.667,128c-3.755,2.816-8.277,4.267-12.8,4.267c-3.243,0-6.507-0.725-9.536-2.24c-7.232-3.627-11.797-11.008-11.797-19.093 V128c0-8.085,4.565-15.467,11.797-19.072c7.211-3.627,15.872-2.859,22.336,2.005l170.667,128C380.843,242.965,384,249.28,384,256 C384,262.72,380.843,269.056,375.467,273.067z"/> </g> </g> </g> </g>
</svg>